<?xml version="1.0" standalone="no"?>
<!DOCTYPE svg PUBLIC "-//W3C//DTD SVG 20010904//EN"
 "http://www.w3.org/TR/2001/REC-SVG-20010904/DTD/svg10.dtd">
<svg version="1.0" xmlns="http://www.w3.org/2000/svg"
 width="340.000000pt" height="340.000000pt" viewBox="0 0 340.000000 340.000000"
 preserveAspectRatio="xMidYMid meet">
<metadata>
Created by potrace 1.14, written by Peter Selinger 2001-2017
</metadata>
<g transform="translate(0.000000,340.000000) scale(0.100000,-0.100000)"
fill="#000000" stroke="none">
<path d="M1975 3385 c-274 -38 -460 -106 -572 -209 -94 -86 -98 -99 -98 -331
l0 -200 28 -48 c16 -27 35 -51 42 -54 10 -3 0 -19 -34 -53 -83 -83 -86 -95
-86 -325 l0 -200 29 -45 c16 -25 33 -46 37 -48 15 -6 10 -22 -16 -56 -13 -18
-31 -49 -40 -69 -9 -21 -19 -35 -24 -33 -5 3 -44 -3 -86 -14 -292 -75 -693
-411 -913 -765 -70 -114 -91 -158 -128 -265 -28 -82 -32 -107 -30 -180 3 -115
22 -148 163 -284 134 -130 151 -141 219 -154 151 -27 328 38 559 203 83 59
114 86 216 183 41 39 78 72 81 72 2 0 5 -16 5 -35 0 -19 -4 -32 -8 -30 -8 5
-6 -9 4 -35 3 -8 13 -37 23 -64 19 -53 95 -143 140 -166 16 -8 31 -17 34 -20
6 -7 133 -63 175 -78 39 -14 189 -49 240 -56 22 -3 69 -10 105 -15 67 -9 436
-7 480 3 14 3 47 8 75 11 119 14 272 59 385 113 53 25 94 55 140 101 75 75 92
116 91 219 0 63 1 66 43 113 66 73 76 114 76 304 0 189 -9 227 -75 301 -43 50
-44 52 -44 121 0 77 -16 126 -57 180 l-25 33 31 32 c71 74 75 92 75 309 0 207
-2 216 -52 286 l-24 33 26 22 c14 12 43 47 63 78 l37 55 3 187 c4 181 3 189
-21 240 -13 29 -39 70 -58 90 -31 35 -34 42 -35 111 -1 50 -8 88 -22 118 -69
152 -284 259 -620 310 -109 16 -448 18 -557 4z"/>
</g>
</svg>
